<?xml version="1.0" standalone="no"?>
<!DOCTYPE svg PUBLIC "-//W3C//DTD SVG 20010904//EN"
 "http://www.w3.org/TR/2001/REC-SVG-20010904/DTD/svg10.dtd">
<svg version="1.0" xmlns="http://www.w3.org/2000/svg"
 width="142.000000pt" height="142.000000pt" viewBox="0 0 142.000000 142.000000"
 preserveAspectRatio="xMidYMid meet">
<metadata>
Created by potrace 1.11, written by Peter Selinger 2001-2013
</metadata>
<g transform="translate(0.000000,142.000000) scale(0.100000,-0.100000)"
fill="#000000" stroke="none">
<path d="M0 711 c0 -369 2 -671 4 -671 3 0 64 61 138 135 l133 135 1 192 c1
106 2 194 3 196 1 1 44 -41 97 -94 l96 -97 236 237 237 236 1 195 c0 107 -2
195 -6 195 -3 0 -108 -103 -234 -230 -125 -126 -231 -230 -234 -230 -3 0 -110
106 -239 236 l-233 235 0 -670z"/>
<path d="M1280 1238 l-135 -137 -1 -188 c-1 -103 -2 -192 -3 -197 -1 -6 -44
35 -96 89 l-96 99 -237 -237 -237 -237 -1 -195 c0 -107 2 -195 6 -195 3 0 109
104 234 230 126 127 231 230 234 230 3 0 109 -104 235 -230 126 -127 231 -229
233 -227 2 2 3 303 2 668 l-3 664 -135 -137z"/>
</g>
</svg>
